HIERARCHY
ROOT Hips
{
	OFFSET 0.00000 0.00000 0.00000
	CHANNELS 6 Xposition Yposition Zposition Zrotation Yrotation Xrotation 
	JOINT LHipJoint
	{
		OFFSET 0 0 0
		CHANNELS 3 Zrotation Yrotation Xrotation
		JOINT LeftUpLeg
		{
			OFFSET 1.37959 -1.78713 0.86582
			CHANNELS 3 Zrotation Yrotation Xrotation
			JOINT LeftLeg
			{
				OFFSET 2.54611 -6.99539 0.00000
				CHANNELS 3 Zrotation Yrotation Xrotation
				JOINT LeftFoot
				{
					OFFSET 2.59951 -7.14211 0.00000
					CHANNELS 3 Zrotation Yrotation Xrotation
					JOINT LeftToeBase
					{
						OFFSET 0.18493 -0.50810 1.96120
						CHANNELS 3 Zrotation Yrotation Xrotation
						End Site
						{
							OFFSET 0.00000 -0.00000 1.02054
						}
					}
				}
			}
		}
	}
	JOINT RHipJoint
	{
		OFFSET 0 0 0
		CHANNELS 3 Zrotation Yrotation Xrotation
		JOINT RightUpLeg
		{
			OFFSET -1.33564 -1.78713 0.86582
			CHANNELS 3 Zrotation Yrotation Xrotation
			JOINT RightLeg
			{
				OFFSET -2.52705 -6.94302 0.00000
				CHANNELS 3 Zrotation Yrotation Xrotation
				JOINT RightFoot
				{
					OFFSET -2.55964 -7.03257 0.00000
					CHANNELS 3 Zrotation Yrotation Xrotation
					JOINT RightToeBase
					{
						OFFSET -0.25804 -0.70896 2.12109
						CHANNELS 3 Zrotation Yrotation Xrotation
						End Site
						{
							OFFSET -0.00000 -0.00000 1.11821
						}
					}
				}
			}
		}
	}
	JOINT LowerBack
	{
		OFFSET 0 0 0
		CHANNELS 3 Zrotation Yrotation Xrotation
		JOINT Spine
		{
			OFFSET -0.02031 2.24248 -0.18900
			CHANNELS 3 Zrotation Yrotation Xrotation
			JOINT Spine1
			{
				OFFSET 0.08342 2.24689 -0.03799
				CHANNELS 3 Zrotation Yrotation Xrotation
				JOINT Neck
				{
					OFFSET 0 0 0
					CHANNELS 3 Zrotation Yrotation Xrotation
					JOINT Neck1
					{
						OFFSET -0.11607 1.55844 0.24628
						CHANNELS 3 Zrotation Yrotation Xrotation
						JOINT Head
						{
							OFFSET 0.06877 1.60174 -0.17013
							CHANNELS 3 Zrotation Yrotation Xrotation
							End Site
							{
								OFFSET 0.03358 1.61266 -0.08543
							}
						}
					}
				}
				JOINT LeftShoulder
				{
					OFFSET 0 0 0
					CHANNELS 3 Zrotation Yrotation Xrotation
					JOINT LeftArm
					{
						OFFSET 3.47537 0.55866 -0.72348
						CHANNELS 3 Zrotation Yrotation Xrotation
						JOINT LeftForeArm
						{
							OFFSET 5.38154 -0.00000 0.00000
							CHANNELS 3 Zrotation Yrotation Xrotation
							JOINT LeftHand
							{
								OFFSET 3.33312 -0.00000 0.00000
								CHANNELS 3 Zrotation Yrotation Xrotation
								JOINT LeftFingerBase
								{
									OFFSET 0 0 0
									CHANNELS 3 Zrotation Yrotation Xrotation
									JOINT LeftHandIndex1
									{
										OFFSET 0.71079 -0.00000 0.00000
										CHANNELS 3 Zrotation Yrotation Xrotation
										End Site
										{
											OFFSET 0.57306 -0.00000 0.00000
										}
									}
								}
								JOINT LThumb
								{
									OFFSET 0 0 0
									CHANNELS 3 Zrotation Yrotation Xrotation
									End Site
									{
										OFFSET 0.58181 -0.00000 0.58181
									}
								}
							}
						}
					}
				}
				JOINT RightShoulder
				{
					OFFSET 0 0 0
					CHANNELS 3 Zrotation Yrotation Xrotation
					JOINT RightArm
					{
						OFFSET -3.27844 0.90739 -0.35708
						CHANNELS 3 Zrotation Yrotation Xrotation
						JOINT RightForeArm
						{
							OFFSET -5.16954 -0.00000 0.00000
							CHANNELS 3 Zrotation Yrotation Xrotation
							JOINT RightHand
							{
								OFFSET -3.38287 -0.00000 0.00000
								CHANNELS 3 Zrotation Yrotation Xrotation
								JOINT RightFingerBase
								{
									OFFSET 0 0 0
									CHANNELS 3 Zrotation Yrotation Xrotation
									JOINT RightHandIndex1
									{
										OFFSET -0.81797 -0.00000 0.00000
										CHANNELS 3 Zrotation Yrotation Xrotation
										End Site
										{
											OFFSET -0.65947 -0.00000 0.00000
										}
									}
								}
								JOINT RThumb
								{
									OFFSET 0 0 0
									CHANNELS 3 Zrotation Yrotation Xrotation
									End Site
									{
										OFFSET -0.66953 -0.00000 0.66953
									}
								}
							}
						}
					}
				}
			}
		}
	}
}
MOTION
Frames: 6
Frame Time: 0.0434783
0.00 0.00 0.00 1.7853 -10.9550 2.9791 0.0000 0.0000 0.0000 -2.9604 15.3067 -70.2088 29.4285 17.7190 118.6179 -1.9245 -40.7109 -21.1193 1.8893 -8.6316 -24.6494 0.0000 0.0000 0.0000 2.4856 5.4538 -72.8722 -29.4546 -17.7053 118.7038 -3.2280 9.9375 -32.4827 -2.4016 9.6567 -27.8720 2.5000 1.8432 34.1009 -1.1351 2.9774 6.3099 -3.6796 1.2816 -10.1963 -9.2833 -6.3648 -15.4914 10.8579 -8.1618 10.4731 4.1443 -3.4932 6.5684 0.0000 -0.0000 0.0000 -69.8201 3.7383 -20.4085 127.8642 -53.8214 -92.1109 -0.0000 0.0000 -31.8718 10.1567 28.4217 4.8736 -7.1250 0.0000 -0.0000 -22.5451 57.3248 -7.0467 0.0000 -0.0000 0.0000 24.5898 10.1006 -26.5824 -54.3539 54.6074 -29.6886 0.0000 -0.0000 -47.7982 -31.4212 34.0352 -18.8770 7.1250 -0.0000 -0.0000 0.6691 8.3784 0.7595
0.00 0.00 0.00 -0.6246 -7.1543 3.9143 0.0000 0.0000 0.0000 -4.4337 5.5862 -56.8836 22.5215 19.8469 97.3904 1.0112 -29.2147 -25.9999 1.3602 -7.3821 -20.8526 0.0000 0.0000 0.0000 9.4063 3.4785 -58.6910 -22.7514 -19.8175 98.0680 -2.4700 13.3718 -28.4610 -1.8681 8.5859 -24.5082 2.2513 2.0044 28.4174 1.1892 3.3303 5.1572 -1.1485 1.4844 -9.8530 -8.5720 -6.8042 -14.4981 12.6639 -8.8814 6.5879 4.5487 -3.7983 5.3286 0.0000 0.0000 0.0000 -78.8497 -1.5104 -14.6506 110.4550 -58.3585 -77.6169 -0.0000 0.0000 -28.5334 10.7171 26.6938 4.8596 -7.1250 0.0000 -0.0000 -20.8329 55.8407 -5.7188 0.0000 0.0000 0.0000 34.5491 9.2845 -20.5576 -79.5617 59.5843 -50.9728 0.0000 -0.0000 -40.9060 -33.3498 35.8807 -21.0928 7.1250 -0.0000 -0.0000 0.0795 10.9115 0.0931
0.00 0.00 0.00 -2.1495 -1.3955 3.6302 0.0000 0.0000 0.0000 -3.4635 3.2739 -53.6092 20.1292 19.9996 90.3777 1.0966 -27.5145 -25.5041 1.5424 -7.8396 -22.2279 0.0000 0.0000 0.0000 13.4761 0.7511 -53.9753 -20.6881 -19.9886 92.0122 -2.5746 10.1389 -28.8873 -1.9606 8.7835 -25.1205 1.5611 0.7811 27.1360 2.9548 1.7637 4.9138 1.8014 0.8177 -9.6065 -8.0125 -6.8368 -14.6740 11.8251 -8.8656 5.9806 4.1915 -3.8353 5.0963 -0.0000 -0.0000 0.0000 -72.7891 -9.2144 -12.5879 100.7281 -59.5606 -69.2771 -0.0000 0.0000 -28.0144 12.6724 26.5809 5.7454 -7.1250 0.0000 -0.0000 -18.8024 56.1252 -5.2623 -0.0000 -0.0000 0.0000 43.4127 3.9862 -14.2911 -100.2808 59.5968 -68.8914 0.0000 -0.0000 -39.2306 -33.2374 36.7035 -21.3885 7.1250 -0.0000 -0.0000 0.3466 11.7296 0.4098
0.00 0.00 0.00 -3.4072 7.8394 3.1883 0.0000 0.0000 0.0000 -3.7786 0.0396 -48.7710 16.1804 19.6466 78.7687 0.8974 -25.8158 -23.5371 1.1465 -6.7992 -19.1218 0.0000 0.0000 0.0000 18.1886 -4.1570 -48.0899 -17.3206 -19.8270 82.1441 -2.5878 5.4331 -29.2734 -1.3924 7.4654 -21.1017 -1.3459 -1.4842 25.1717 5.8767 -1.6223 4.1190 7.9191 -0.6215 -9.2100 -8.1924 -5.9562 -15.0851 10.6564 -7.5123 6.4172 3.9857 -3.2293 5.1115 0.0000 -0.0000 0.0000 -66.3869 -18.1528 -11.4299 82.2447 -59.7715 -53.2889 -0.0000 0.0000 -24.5162 16.1078 28.3841 7.8168 -7.1250 0.0000 -0.0000 -16.3864 58.5765 -5.5348 0.0000 -0.0000 0.0000 55.2556 -3.0556 -5.2867 -119.7834 56.3674 -85.4786 0.0000 -0.0000 -32.8698 -33.0914 39.3427 -22.4473 7.1250 -0.0000 -0.0000 1.1203 14.3885 1.3637
0.00 0.00 0.00 -5.4867 18.5469 3.0360 0.0000 0.0000 0.0000 -3.1881 -4.2765 -42.0345 10.8589 17.8653 62.3225 -0.0577 -26.9742 -18.7131 0.4122 -4.1212 -11.4179 0.0000 0.0000 0.0000 24.0514 -9.1871 -41.3536 -12.4076 -18.5577 67.2751 -2.1660 -0.9825 -28.2150 -0.8132 5.7546 -16.0740 -3.9710 -4.8641 22.5303 9.2685 -6.3611 2.3446 14.7736 -2.7688 -8.3674 -11.0369 -4.7324 -16.2362 10.7475 -5.2742 7.7874 4.7070 -2.1676 5.5829 0.0000 0.0000 0.0000 -58.3842 -25.0767 -9.3607 63.3081 -57.1289 -37.1070 -0.0000 0.0000 -22.7362 17.9067 28.3544 8.7244 -7.1250 0.0000 -0.0000 -14.4556 58.9522 -4.9947 0.0000 0.0000 0.0000 69.9263 -12.4227 3.1376 -132.2156 52.0619 -95.5844 0.0000 -0.0000 -28.0059 -31.3107 40.3012 -21.4762 7.1250 -0.0000 -0.0000 2.2707 14.7788 2.7767
0.00 0.00 0.00 -4.0398 14.4042 2.8837 0.0000 0.0000 0.0000 -6.5306 -3.7631 -31.9266 7.0104 15.3406 48.9136 0.3326 -20.6621 -17.0861 0.4980 -4.5242 -12.5563 0.0000 0.0000 0.0000 23.7158 -6.3997 -30.6483 -7.5825 -15.8034 51.0444 -1.8560 -4.5222 -27.6814 -0.1955 2.8470 -7.8532 -4.0585 -4.3048 18.4845 8.2082 -5.7834 1.6327 12.8849 -2.5757 -7.2534 -11.0889 -3.7474 -17.2637 9.0634 -3.6590 8.7853 4.3372 -1.4812 5.8404 0.0000 -0.0000 0.0000 -58.2948 -20.9127 -1.2317 77.0520 -59.3570 -48.8110 -0.0000 0.0000 -18.3733 16.1221 30.5667 8.3623 -7.1250 0.0000 -0.0000 -17.8939 60.6685 -6.9638 0.0000 -0.0000 0.0000 72.2808 -13.6178 3.0866 -135.2369 50.6519 -97.9446 0.0000 -0.0000 -24.4773 -27.6596 40.3873 -18.7574 7.1250 -0.0000 -0.0000 4.1156 13.7654 4.9878
